<svg width="256" height="256" viewBox="0 0 256 256" fill="none" xmlns="http://www.w3.org/2000/svg">
    <path d="M 177.000 197.000 L 23.000 197.000 A 18 18 0 0 1 11.768 180.321 L 54.232 75.679 A 18 18 0 0 1 79.000 59.000 L 233.000 59.000 A 18 18 0 0 1 244.232 75.679 L 201.768 180.321 A 18 18 0 0 1 177.000 197.000 Z" fill="#00aaa9"/>
    <g transform="translate(85.258 53.086) scale(0.582027)"><path d="M73.4359 211.182C50.4244 211.182 32.4322 204.773 19.4593 191.955C6.48645 179.136 0 160.835 0 137.052V46.2413H37.5287V135.662C37.5287 151.106 40.6947 162.225 47.0268 169.021C53.3588 175.816 62.239 179.213 73.6675 179.213C85.096 179.213 93.9763 175.816 100.308 169.021C106.64 162.225 109.806 151.106 109.806 135.662V46.2413H146.872V137.052C146.872 160.835 140.385 179.136 127.412 191.955C114.44 204.773 96.4473 211.182 73.4359 211.182Z" fill="black"/></g>
</svg>